<?xml version="1.0" encoding="utf-8"?>
<!-- Generator: Adobe Illustrator 24.3.0, SVG Export Plug-In . SVG Version: 6.00 Build 0)  -->
<svg version="1.1" xmlns="http://www.w3.org/2000/svg" xmlns:xlink="http://www.w3.org/1999/xlink" x="0px" y="0px"
	 viewBox="0 0 459.96 398.34" style="enable-background:new 0 0 459.96 398.34;" xml:space="preserve">
<style type="text/css">
	.st0{fill:none;stroke:#000000;stroke-width:3.8481;stroke-miterlimit:10;}
	.st1{fill:none;stroke:#000000;stroke-width:5.1073;stroke-miterlimit:10;}
</style>
<g id="Layer_1">
	<g>
		<path d="M229.98,29.1l204.78,354.68H25.2L229.98,29.1 M229.98,0L0,398.34h459.96L229.98,0L229.98,0z"/>
	</g>
	<ellipse class="st0" cx="229.98" cy="262.12" rx="77.39" ry="41.69"/>
	<g>
		<path class="st1" d="M331.88,189.3c-5.28,15.42-13.95,29.27-25.14,40.64c-3.52,3.58-7.28,6.91-11.27,9.97"/>
		<path class="st1" d="M376.18,267.75c-19.87,17.06-44.49,25.69-69.17,25.9c-7.44,0.06-14.88-0.64-22.2-2.11"/>
		<path class="st1" d="M414.85,337.19c-19.56,20.12-46.92,32.61-77.2,32.61c-29.41,0-56.07-11.79-75.51-30.91
			c-10.15-9.99-18.34-21.98-23.91-35.33"/>
		<path class="st1" d="M212.76,392.24c-9.64-16.47-14.54-34.95-14.69-53.47c-0.1-12.63,2-25.28,6.31-37.31"/>
		<path class="st1" d="M123.9,392.24c-1.53-7.24-2.34-14.74-2.34-22.43c0-29.41,11.79-56.07,30.91-75.51
			c3.63-3.69,7.53-7.13,11.66-10.27"/>
		<path class="st1" d="M188.49,84.25c15.3,5.12,29.68,13.78,41.86,25.96c20.8,20.8,31.31,47.99,31.53,75.25
			c0.1,12.63-2,25.28-6.31,37.31"/>
		<path class="st1" d="M148.48,155.6c19.58,4.56,37.11,14.47,50.97,28.1c10.54,10.37,18.96,22.89,24.53,36.85"/>
		<path class="st1" d="M96.09,247.34c17.3-11.01,37.06-16.6,56.86-16.76c7.44-0.06,14.88,0.64,22.2,2.11"/>
	</g>
</g>
<g id="Layer_2">
	<g>
	</g>
	<g>
	</g>
	<g>
	</g>
	<g>
	</g>
	<g>
	</g>
	<g>
	</g>
	<g>
	</g>
	<g>
	</g>
	<g>
	</g>
	<g>
	</g>
	<g>
	</g>
	<g>
	</g>
	<g>
	</g>
	<g>
	</g>
	<g>
	</g>
</g>
</svg>
